<?xml version="1.0" encoding="UTF-8"?>
<svg version="1.1" viewBox="0 0 700 700" xmlns="http://www.w3.org/2000/svg">
 <g>
  <path d="m297.5 437.5h105c9.6641 0 17.5 9.6641 17.5 17.5 0 9.6641-7.8359 17.5-17.5 17.5h-105c-9.6641 0-17.5-9.6641-17.5-17.5 0-9.6641 7.8359-17.5 17.5-17.5z"/>
  <path d="m297.5 490h105c9.6641 0 17.5 9.6641 17.5 17.5 0 9.6641-7.8359 17.5-17.5 17.5h-105c-9.6641 0-17.5-9.6641-17.5-17.5 0-9.6641 7.8359-17.5 17.5-17.5z"/>
  <path d="m494.02 127.93c-16.551-37.402-47.004-66.898-84.914-82.246-37.91-15.352-80.309-15.352-118.22 0-37.91 15.348-68.363 44.844-84.914 82.246-12.578 28.594-16.449 60.266-11.125 91.047 5.3203 30.785 19.598 59.316 41.047 82.027 8.8477 8.9492 16.496 19.008 22.75 29.926 9.6094 18.578 16.055 38.629 19.078 59.324 1.2656 8.3477 5.5039 15.953 11.934 21.422 6.4336 5.4648 14.625 8.4219 23.066 8.3281h75.602-0.003906c8.4414 0.09375 16.633-2.8633 23.062-8.3281 6.4336-5.4688 10.672-13.074 11.938-21.422 3.0234-20.695 9.4688-40.746 19.074-59.324 6.2578-10.918 13.902-20.977 22.75-29.926 21.277-22.828 35.359-51.41 40.496-82.191 5.1328-30.777 1.0938-62.387-11.621-90.883zm-55.301 148.93h0.003906c-11.062 11.391-20.543 24.223-28.176 38.148-10.457 19.73-17.723 40.996-21.527 63-0.74609 4.1758-4.332 7.25-8.5742 7.3516h-60.898c-4.2422-0.10156-7.8281-3.1758-8.5742-7.3516-3.8047-22.004-11.07-43.27-21.527-63-7.6602-13.801-17.137-26.516-28.176-37.801-16.836-17.602-28.043-39.82-32.188-63.824-4.1445-24.004-1.043-48.695 8.9141-70.926 12.883-29.074 36.562-52 66.043-63.93 29.477-11.93 62.438-11.93 91.914 0 29.48 11.93 53.16 34.855 66.043 63.93 9.8789 22.188 12.941 46.809 8.8008 70.738-4.1445 23.934-15.309 46.09-32.074 63.664z"/>
 </g>
</svg>
